<svg xmlns="http://www.w3.org/2000/svg" viewBox="0 0 400 533" fill="none" role="img" aria-label="Product placeholder">
  <rect width="400" height="533" fill="#F7F3F4"/>
  <rect x="32" y="32" width="336" height="469" rx="16" fill="#F0E8EA" stroke="#E8D5DA" stroke-width="1"/>
  <path d="M200 140c-18 0-32 14-32 32v8h-36c-8 0-14 6-14 14v6c0 8 6 14 14 14h136c8 0 14-6 14-14v-6c0-8-6-14-14-14h-36v-8c0-18-14-32-32-32z" fill="#B8465F" fill-opacity="0.18"/>
  <path d="M168 180h64l20 220c2 18-12 34-30 34h-44c-18 0-32-16-30-34l20-220z" fill="#B8465F" fill-opacity="0.22"/>
  <path d="M152 248c24 18 72 18 96 0" stroke="#B8465F" stroke-opacity="0.28" stroke-width="3" stroke-linecap="round"/>
  <circle cx="200" cy="128" r="10" fill="#B8465F" fill-opacity="0.2"/>
</svg>
